<svg width="42" height="42" viewBox="0 0 42 42" fill="none" xmlns="http://www.w3.org/2000/svg">
<path d="M13.125 38.5C11.4333 38.5 9.98958 37.9021 8.79375 36.7063C7.59792 35.5104 7 34.0667 7 32.375V9.625C7 7.93333 7.59792 6.48958 8.79375 5.29375C9.98958 4.09792 11.4333 3.5 13.125 3.5H31.5C32.4625 3.5 33.2867 3.84242 33.9727 4.52725C34.6587 5.21208 35.0012 6.03633 35 7V28.0438C35 28.5104 34.8833 28.9333 34.65 29.3125C34.4167 29.6917 34.0958 29.9833 33.6875 30.1875C33.2792 30.3917 32.9583 30.6909 32.725 31.0853C32.4917 31.4796 32.375 31.9095 32.375 32.375C32.375 32.8417 32.4917 33.2792 32.725 33.6875C32.9583 34.0958 33.2792 34.3875 33.6875 34.5625C34.0667 34.7083 34.3805 34.9271 34.629 35.2188C34.8775 35.5104 35.0012 35.8604 35 36.2688V36.7063C35 37.2021 34.832 37.625 34.496 37.975C34.16 38.325 33.7447 38.5 33.25 38.5H13.125ZM18.5062 19.6438H23.45L24.325 22.0938C24.3833 22.2979 24.4924 22.4583 24.6522 22.575C24.8121 22.6917 25.0092 22.75 25.2437 22.75C25.5937 22.75 25.8708 22.6042 26.075 22.3125C26.2792 22.0208 26.3083 21.7146 26.1625 21.3938L22.3125 11.1563C22.2542 10.9521 22.1375 10.7917 21.9625 10.675C21.7875 10.5583 21.5833 10.5 21.35 10.5H20.5625C20.3292 10.5 20.125 10.5583 19.95 10.675C19.775 10.7917 19.6583 10.9521 19.6 11.1563L15.75 21.4375C15.6042 21.7583 15.6409 22.0576 15.8602 22.3353C16.0796 22.6129 16.3637 22.7512 16.7125 22.75C16.9458 22.75 17.143 22.6917 17.304 22.575C17.465 22.4583 17.5741 22.2979 17.6312 22.0938L18.5062 19.6438ZM19.1187 17.85L20.9125 12.775H21.0437L22.7937 17.85H19.1187ZM13.125 35H29.4437C29.2687 34.5917 29.1305 34.1763 29.029 33.754C28.9275 33.3317 28.8762 32.872 28.875 32.375C28.875 31.9083 28.9187 31.4563 29.0062 31.0188C29.0937 30.5813 29.2396 30.1583 29.4437 29.75H13.125C12.3667 29.75 11.7396 30.0055 11.2437 30.5165C10.7479 31.0275 10.5 31.647 10.5 32.375C10.5 33.1333 10.7479 33.7604 11.2437 34.2563C11.7396 34.7521 12.3667 35 13.125 35Z" fill="white"/>
</svg>
