<svg width="42" height="42" viewBox="0 0 42 42" fill="none" xmlns="http://www.w3.org/2000/svg">
<path d="M15.75 5.25H7C6.0335 5.25 5.25 6.0335 5.25 7V19.25C5.25 20.2165 6.0335 21 7 21H15.75C16.7165 21 17.5 20.2165 17.5 19.25V7C17.5 6.0335 16.7165 5.25 15.75 5.25Z" fill="white" stroke="white" stroke-width="3.5" stroke-linecap="round" stroke-linejoin="round"/>
<path d="M35 5.25H26.25C25.2835 5.25 24.5 6.0335 24.5 7V12.25C24.5 13.2165 25.2835 14 26.25 14H35C35.9665 14 36.75 13.2165 36.75 12.25V7C36.75 6.0335 35.9665 5.25 35 5.25Z" stroke="white" stroke-width="3.5" stroke-linecap="round" stroke-linejoin="round"/>
<path d="M35 21H26.25C25.2835 21 24.5 21.7835 24.5 22.75V35C24.5 35.9665 25.2835 36.75 26.25 36.75H35C35.9665 36.75 36.75 35.9665 36.75 35V22.75C36.75 21.7835 35.9665 21 35 21Z" stroke="white" stroke-width="3.5" stroke-linecap="round" stroke-linejoin="round"/>
<path d="M15.75 28H7C6.0335 28 5.25 28.7835 5.25 29.75V35C5.25 35.9665 6.0335 36.75 7 36.75H15.75C16.7165 36.75 17.5 35.9665 17.5 35V29.75C17.5 28.7835 16.7165 28 15.75 28Z" stroke="white" stroke-width="3.5" stroke-linecap="round" stroke-linejoin="round"/>
</svg>
